<?xml version="1.0" encoding="UTF-8"?> <svg xmlns="http://www.w3.org/2000/svg" xmlns:xlink="http://www.w3.org/1999/xlink" width="273px" height="116px" viewBox="0 0 273 116" version="1.1"><title>Group 6</title><g id="Design" stroke="none" stroke-width="1" fill="none" fill-rule="evenodd"><g id="Home" transform="translate(-899.000000, -445.000000)" stroke="#08212C" stroke-width="1.5"><g id="Hero" transform="translate(208.000000, 157.175690)"><g id="Group-6" transform="translate(692.000000, 289.324310)"><path d="M182.26043,109.134669 C182.709229,93.074082 183.131479,76.9374245 181,61 C181.7067,78.1086725 183.714286,95.1690461 187,112 C185.613148,111.632928 184.226296,111.265857 182.839444,110.898785 C183.289507,106.218623 183.556258,101.522764 183.635904,96.8232829 C183.7067,92.7166702 183.57775,88.3975424 181.415929,84.8475744" id="Stroke-1"></path><path d="M182.641395,89 C182.184999,87.9614349 182.387185,86.5516989 183.356731,85.9699597 C184.326276,85.3882205 185.884643,86.2459587 185.651716,87.3570924 C180.820541,88.3587783 175.614554,87.3975405 171.452603,84.7339126 C170.830675,84.3353796 170.173275,83.8047954 170.117704,83.0648327 C170.031391,81.9215784 171.366289,81.255374 172.478902,81.010306 C175.802552,80.2786708 179.308287,80.4023945 182.572818,81.3683908 C183.08242,81.5206661 183.653506,81.7550273 183.820221,82.2630081 C184.005853,82.8269026 183.59084,83.4038832 183.158092,83.8071747 C181.506317,85.3501517 179.16049,86.1091488 176.925806,85.8248223 C176.219929,85.7355985 175.496317,85.5309786 174.977256,85.0420322 C173.830354,83.9582604 174.180336,81.9989057 175.048198,80.6772038 C176.41975,78.5881772 178.884997,77.2712338 181.373892,77.2997855 C183.862786,77.3271474 186.297291,78.697625 187.623914,80.8175825 C188.048385,81.4968731 188.371173,82.3129735 188.174899,83.091005 C187.850929,84.3793967 186.343404,84.9135499 185.041612,85.1431525 C178.810508,86.2423897 172.211686,85.0943768 166.710106,81.9513197 C168.405628,78.5310739 171.207852,75.5129301 174.818818,74.3256587 C178.429784,73.1371977 182.851857,74.1329353 185.074718,77.233165 C186.169595,78.7606765 186.607073,81.0329093 185.382135,82.4581109 C184.608863,83.3551075 183.38156,83.6929683 182.215741,83.8773641 C178.862532,84.4079483 175.073028,83.8999675 172.739024,81.4183561 C172.107637,80.7473932 171.593305,79.917017 171.497533,78.997417 C171.206669,76.1969793 174.647374,74.5457441 177.444867,74.4993477 C181.36798,74.4339169 185.299369,75.8317565 188.312054,78.3609539 C190.149462,79.9051205 191.736206,82.3855422 190.813955,84.6078096 C189.955552,86.6778019 187.403992,87.3785061 185.178767,87.5200745 C180.807535,87.7972632 176.368908,86.9181113 172.42806,84.9944461 C169.45794,83.5442619 166.461808,80.8425652 166.857903,77.5448535 C167.082553,75.6747226 168.387893,74.0996251 169.882412,72.9646983 C176.033114,68.2905608 185.008505,69.8573307 191.666446,73.7641436 C193.341868,74.7479847 194.979454,75.8971873 196.088519,77.4972675 C197.198767,79.0973477 197.706005,81.231581 196.981211,83.0422293 C196.464514,84.33419 195.387372,85.328738 194.20027,86.0449077 C190.74183,88.1339343 186.090376,88.0244864 182.73362,85.774857 C179.405241,83.5454516 177.572564,79.617225 176.67869,75.697326 C176.053215,72.9539915 175.8865,69.8252102 177.566652,67.5767704 C179.142754,65.4687093 182.303237,64.7109018 184.605316,65.9719316 C186.907396,67.234151 187.976261,70.4176562 186.812806,72.7814921 C185.178767,76.1041865 180.672745,76.5479262 177.014484,76.1101348 C170.458227,75.3249653 164.069868,73.1514735 158.38502,69.7728655 C155.391253,67.9931481 152.231953,64.948832 153.16721,61.5785516 C153.721742,59.5787488 155.576885,58.2534779 157.38828,57.2589299 C168.794629,50.9930397 183.648777,51.6949336 194.421374,59.0089061 C197.441154,61.0598639 200.321413,63.906698 200.752979,67.5470291 C201.353625,72.6232686 196.98594,76.9464592 192.452723,79.2543815 C191.155661,79.9146377 189.786473,80.4939976 188.339249,80.631997 C185.584321,80.8972891 182.817569,79.4601911 181.130323,77.2533891 C179.443077,75.046587 178.765578,72.1676324 178.900368,69.3862291 C178.997323,67.3864263 179.680734,65.1605898 181.473211,64.2885759 C183.398114,63.3535104 185.710835,64.403972 187.33305,65.8030012 C189.438856,67.6184081 191.010229,70.0548127 191.801236,72.7291475 C192.20679,74.1043837 192.39124,75.6640158 191.697187,76.9179076 C190.498261,79.0842615 187.473752,79.2151231 185.036882,78.8439521 C178.896821,77.9088866 172.976681,75.5355335 167.87829,71.9677711 C165.178933,70.0786058 162.545789,67.5732014 162.061017,64.3004724 C164.833681,61.6677754 169.122146,61.4536383 172.864356,62.1924113 C180.253002,63.6509231 186.952326,68.3405261 190.880168,74.8038983 C191.403959,75.6663951 191.897008,76.6395293 191.757488,77.6412152 C191.442977,79.889655 188.498869,80.4678252 186.242902,80.3667049 C179.257445,80.0514475 172.325194,78.5382118 165.837515,75.9102734 C167.699752,75.993549 169.489864,77.0582864 170.460592,78.6571769 C170.912258,79.4018982 171.145186,80.4725838 170.513799,81.0697885 C170.188646,81.3767184 169.721609,81.4659422 169.280584,81.5230454 C167.368688,81.7704928 165.414226,81.6669931 163.538982,81.2196845 C162.330598,80.9305994 160.907021,80.1240162 161.0761,78.8867795 C161.155319,78.3097989 161.579791,77.8494041 161.993621,77.4425435 C167.316663,72.2152184 174.525589,68.9769892 181.94616,68.4785256 C184.683353,68.2941297 187.498582,68.4844738 190.032407,69.5420733 C192.565049,70.5984831 194.792639,72.6161307 195.652224,75.2369312 C196.074331,76.5253229 196.139361,78.0040587 195.478415,79.1865715 C194.306684,81.2839256 191.441795,81.6467691 189.07705,81.2874946 C186.932226,80.9603406 184.84652,80.2429813 182.952359,79.1794335 C181.697862,78.4751603 180.420899,77.4508711 180.245908,76.0149627 C179.969233,73.7296437 182.5539,72.1973736 184.795678,71.7345995 C190.063148,70.6484484 195.770461,71.9523056 200.054197,75.220276 C201.334707,76.1969793 202.583292,77.9291107 201.707154,79.2853125 C201.228293,80.0276545 200.290672,80.2977052 199.431087,80.4832907 C195.401561,81.357684 191.245521,81.6324933 187.136776,81.2993911 C185.207144,81.1423572 183.187651,80.809255 181.66712,79.6017595 C179.322475,77.7387666 178.834155,74.3101933 179.302375,71.3408251 C180.01771,66.8177732 182.588188,62.6218752 186.284285,59.9487301 C187.390986,59.1480952 188.745985,58.4545289 190.070243,58.7828725 C191.393318,59.111216 192.293103,60.9587436 191.322375,61.921171" id="Stroke-3"></path><path d="M146,95.3791404 C148.167631,88.4744254 152.896794,82.4777412 158.9822,78.9180152 C159.794767,78.4419126 160.853816,78.0210281 161.602699,78.5989774 C162.021365,78.9216964 162.207701,79.4751044 162.31738,80.005198 C162.85634,82.6102646 161.974192,85.4840593 160.082527,87.2817147 C159.873783,83.3379163 161.534297,79.3339915 164.435479,76.7878241 C164.897781,76.3828915 165.435561,75.9951378 166.039385,76 C166.642028,76.0049544 167.172733,76.3976163 167.632676,76.803776 C170.188311,79.0652634 171.914868,82.3157681 172.39486,85.7711933 C171.691972,86.5614255 170.229588,85.7994159 170.162365,84.7245038 C170.093963,83.6495917 171.042155,82.7317444 172.056389,82.5145533 C173.069444,82.2973621 174.114341,82.6078105 175.093195,82.9612062 C180.783522,85.0153191 185.941965,88.6413067 189.897479,93.3667479 C189.225254,94.8220512 186.824113,93.1090635 187.377225,91.5997691 C187.931516,90.0917018 189.765393,89.6413676 191.317408,89.6241887 C196.197526,89.5726518 201.061134,91.7470173 204.383341,95.4650352 C202.244014,96.4847292 199.530347,96.0147619 197.825019,94.3275426 C199.007899,91.5187826 200.239132,88.6339443 202.346617,86.4890284 C204.454102,84.3441125 207.674885,83.0888214 210.416856,84.2164974 C213.158827,85.3429464 214.62475,89.4106787 212.672938,91.7089782 C212.711857,88.3406749 215.344149,85.2091959 218.546063,84.7195955 C221.749157,84.2299952 225.136228,86.4423998 226.103288,89.6560925 C226.932366,87.2387673 229.533995,85.8791753 232,85.8055512" id="Stroke-5"></path><path d="M0,112 C64.6133172,110.93884 206.345146,109.359015 271,109" id="Stroke-7"></path><path d="M56.1380493,110 C55.6787211,94.3221231 54.9656464,78.6526539 54,63 C65.0309246,68.5874882 78.2210439,69.5531676 89.9180531,65.6267921 L91,109.573612" id="Stroke-9"></path><line x1="55" y1="61" x2="67" y2="49" id="Stroke-11"></line><path d="M90,64 C92.3329618,61 94.6670382,58 97,55" id="Stroke-13"></path><path d="M71,48.1168872 C79.3565911,49.0455133 87.8159272,49.0189811 96.1666135,48.0384967 C98.0998723,47.8105612 103.323332,48.6065264 104.588158,50.1152422 C106.826109,69.3209169 107.965752,88.6592524 108,108" id="Stroke-15"></path><path d="M64.9798879,81.7722911 C63.7027849,82.8733911 63.6689633,84.8673063 64.9081861,86 C66.5857366,85.0159139 67.3703973,83.025509 66.7345516,81.3615727 C65.3329852,81.974725 64.3940981,83.3075123 64.4062738,84.6660426 C65.4412143,84.787737 66.5302692,84.212029 66.879308,83.3601685 C67.2269938,82.508308 66.799489,81.4692254 65.9052464,81 C65.107057,81.5452843 64.5659117,82.364381 64.4292725,83.237304 C64.7580183,82.8733911 65.0867641,82.5094781 65.4155099,82.1467353" id="Stroke-17"></path><path d="M74,85.3193093 C76.0986341,87.1199881 79.0945187,87.5142119 81.5101037,86.3055192 C82.0729245,86.0244884 82.6369105,85.6224583 82.88045,84.990139 C83.220706,84.1015092 82.7942207,83.0307298 82.1113781,82.4374426 C81.4285354,81.8441553 80.5522596,81.6203715 79.7027847,81.4369209 C78.9721664,81.2781905 78.1529883,81.154589 77.5365655,81.6190705 C76.9201427,82.084853 76.8630449,83.3807172 77.5796801,83.6058021 C77.84769,83.6890705 78.1355094,83.5979957 78.3941972,83.4808995 C79.3718507,83.034633 80.1980204,82.1876374 80.6781077,81.1363741 C79.9742904,81.780403 79.6643311,82.9110315 79.9241842,83.8842307 C80.6454804,83.1465249 81.1826655,82.1876374 81.4611627,81.1415783 C80.9146556,80.8670529 80.2248214,81.0010629 79.7925097,81.4629423" id="Stroke-19"></path><path d="M66.397347,94.4704395 C65.7750369,95.5204933 65.8971424,97.1032387 66.6694068,98 C68.1657359,97.1517813 69.1329408,95.1308748 68.9851288,93.1610658 C68.4806398,93.012883 67.9150981,92.8749197 67.4695198,93.1930017 C67.0239415,93.5098063 66.9618176,94.4908785 67.4630932,94.6518356" id="Stroke-21"></path><path d="M79.7316357,95.2781349 C78.9738002,95.5965175 78.3359452,96.2228865 77.9784525,97 C78.7387365,96.1345191 79.1733595,94.7804184 78.6126347,93.758995 C78.0506856,92.7362721 76.2717924,92.7219774 76,93.8694543 C77.6662586,94.5023209 79.3325171,95.1338881 81,95.7667547" id="Stroke-23"></path><path d="M113.189316,108 C109.789701,75.1246589 108.056038,42.066957 108,9.00685556 C119.543748,8.93127179 131.092165,9.48075381 142.579876,10.6517024 C139.447607,15.1951268 138.860379,21.0522692 138.700439,26.6178742 C137.924084,53.6084788 144.782854,80.2919494 145,107.293352" id="Stroke-25"></path><path d="M21.9858225,111.797269 C19.2903483,111.416833 16.5217685,111.013595 14.1481948,109.659865 C11.773442,108.306136 9.84793489,105.764294 10.0094747,102.99923 C10.1910596,99.9029342 12.9749679,97.4499001 15.9557897,96.8054386 C18.9377907,96.1609771 22.0365247,96.9590533 24.8958969,98.0343559 C26.8296579,98.7628254 29.0475874,100.129756 28.9143466,102.225156 C28.7976135,104.079333 26.7046709,105.262646 24.8900013,105.064627 C23.0753317,104.867808 21.5188899,103.710898 20.0603153,102.595991 C25.1824237,102.27076 30.381175,105.044225 33.0342008,109.515852 C28.6761638,110.011499 24.1978564,109.362237 20.1499286,107.646073 C26.9416746,104.960217 35.0021563,105.875904 41.0451594,110.0223 C41.3918215,110.259923 41.7679615,110.574353 41.7667824,110.999193 C41.7656033,111.523643 41.2078783,111.841674 40.723259,112.019291 C37.7471536,113.113795 34.4550435,113.298613 31.3798918,112.54134 C31.4860129,109.418642 33.4280277,106.432757 36.210757,105.111431 C36.6010465,104.926614 37.0267098,104.768199 37.4547312,104.827004 C38.6491824,104.99262 38.9757993,106.814394 38.1905037,107.745683 C37.4063872,108.678172 36.0657249,108.86659 34.8606616,108.814985 C32.3538471,108.706974 29.8835853,107.82489 27.8613901,106.313946 C26.7270743,105.465465 25.6505354,104.200544 25.8344785,102.779609 C26.0408249,101.193057 27.6703723,100.266569 29.1383799,99.6941143 C30.9400791,98.9908472 32.7971972,98.4363943 34.6861515,98.0367561 C36.605763,97.6311174 38.6845561,97.4030957 40.4603146,98.2491764 C42.2360732,99.0964573 43.4729728,101.377875 42.5850935,103.157645 C41.657124,103.918517 40.1808626,102.724403 40.2775506,101.515888 C40.3754178,100.307373 41.4154039,99.408487 42.4636439,98.8336322 C44.7759032,97.5675114 47.7142766,97.2242786 50.0064908,98.5264029 C52.2987051,99.8297272 53.558008,103.024432 52.2892721,105.363455 C51.0217153,107.703679 47.1070285,108.046911 45.8288596,105.713889 C49.2931217,104.772999 53.1111205,105.262646 56.2381535,107.048416 C57.2380495,107.619671 58.292185,108.66257 57.9254779,109.767876 C57.5363675,110.941588 55.9598806,111.045998 54.7559965,110.870781 C52.7031441,110.573153 50.6738742,110.105108 48.6953065,109.472647 C46.48681,108.76698 43.9670251,107.326843 43.9799955,104.971018 C44.6403041,104.235348 45.3006127,103.499677 45.9621005,102.764007 C39.9815909,101.273465 34.0494253,99.586104 28.1762159,97.7067246 C27.2553212,100.052949 27.0973187,102.700401 27.7328658,105.141434 C27.8554945,105.615479 28.0323629,106.115927 28.4297272,106.394354 C29.0346171,106.816794 29.8576446,106.545568 30.525028,106.232338 C36.2213691,103.550082 40.7833942,98.4699975 42.897561,92.4562236 C43.2395065,91.4829307 43.4623607,90.2468127 42.7206926,89.5423455 C42.2714469,89.1163048 41.6076009,89.0418977 40.9944572,89.0166953 C36.6423158,88.8378783 32.2453678,90.1003988 28.6266407,92.5678342 C26.5985499,93.9515663 24.7650143,95.7781406 23.8912845,98.097962 C23.0187338,100.418983 23.2828573,103.286057 24.9843311,105.068227 C27.5406688,107.744483 32.3066822,106.835996 34.7179878,104.021727 C36.230802,102.256359 37.0443966,99.6845134 36.1753833,97.5159064 C35.201428,95.0856745 32.5201034,93.8867601 30.0144679,93.2651008 C27.7139998,92.6950464 25.1576621,92.4406221 23.0883021,93.613134 C21.018942,94.7844458 19.8964173,97.8603393 21.4151271,99.7085157 C22.3053647,99.3736837 22.8807765,98.3355847 22.7015499,97.3862941" id="Stroke-27"></path><path d="M260.262727,109.499092 C262.677487,109.341125 265.157191,109.172626 267.283833,108.608625 C269.411656,108.044624 271.135641,106.985658 270.991582,105.833083 C270.829811,104.542432 268.334756,103.520911 265.66376,103.252951 C262.992764,102.983822 260.217856,103.316138 257.656676,103.764297 C255.923244,104.06736 253.937119,104.637212 254.0552,105.510127 C254.160292,106.283582 256.035421,106.776205 257.661399,106.694296 C259.286196,106.611217 260.680734,106.130295 261.987893,105.664584 C257.398078,105.530019 252.742137,106.684935 250.365163,108.548948 C254.268927,108.754891 258.281325,108.484591 261.907598,107.769644 C255.822875,106.649832 248.602212,107.032463 243.18819,108.759571 C242.877637,108.857862 242.541105,108.988916 242.542286,109.166776 C242.543467,109.38559 243.04295,109.517814 243.477489,109.591532 C246.142581,110.047882 249.092248,110.12394 251.847082,109.809176 C251.751436,108.507994 250.012101,107.264148 247.519407,106.713018 C247.169887,106.63579 246.788485,106.570263 246.405902,106.594836 C245.334906,106.663873 245.042064,107.423286 245.745828,107.810598 C246.448411,108.19908 247.649297,108.277479 248.728558,108.256417 C250.974462,108.211952 253.187303,107.843362 254.998668,107.213833 C256.015347,106.860454 256.980071,106.333897 256.814757,105.741813 C256.63055,105.080691 255.171067,104.694548 253.854462,104.455842 C252.241473,104.163311 250.57771,103.931625 248.885606,103.765467 C247.165164,103.595799 245.303024,103.501018 243.71247,103.854397 C242.121917,104.206605 241.014316,105.157919 241.809002,105.89978 C242.640293,106.215714 243.962802,105.71841 243.876603,105.215255 C243.789223,104.7121 242.857563,104.33766 241.917637,104.097783 C239.846493,103.570056 237.214464,103.4273 235.161032,103.969069 C233.10642,104.512009 231.978745,105.843614 233.114685,106.81833 C234.251807,107.793046 237.757637,107.936972 238.903024,106.964596 C235.799851,106.572603 232.37904,106.776205 229.578154,107.520406 C228.681918,107.757942 227.73845,108.19323 228.066716,108.65426 C228.415055,109.142203 229.827306,109.185498 230.906568,109.11295 C232.745091,108.988916 234.562361,108.794675 236.334759,108.530226 C238.313799,108.236524 240.57033,107.636249 240.559703,106.654512 C239.968117,106.347939 239.375349,106.041365 238.783762,105.734792 C244.141105,105.113454 249.455938,104.411378 254.717635,103.628562 C255.541842,104.605619 255.683539,105.709049 255.114388,106.72589 C255.004573,106.923641 254.846344,107.131924 254.489739,107.247767 C253.947746,107.424456 253.21092,107.310954 252.613429,107.179899 C247.509961,106.062428 243.423172,103.945667 241.52915,101.440424 C241.223319,101.03439 241.022581,100.519533 241.687378,100.225831 C242.090035,100.049142 242.683983,100.017549 243.234242,100.007018 C247.132101,99.9321295 251.07247,100.458687 254.313798,101.487229 C256.129886,102.062932 257.773576,102.824685 258.555273,103.79121 C259.336971,104.757735 259.100808,105.952436 257.57638,106.695466 C255.285606,107.810598 251.015791,107.431477 248.857267,106.259009 C247.501695,105.524169 246.773134,104.452332 247.551289,103.548994 C248.422728,102.535663 250.82568,102.036019 253.070403,101.777421 C255.130919,101.539885 257.421694,101.433403 259.275568,101.922516 C261.129443,102.41046 262.134314,103.691749 260.774018,104.461693 C259.97579,104.322448 259.460956,103.889501 259.621546,103.493998" id="Stroke-29"></path><path d="M25.4750501,16.0829148 C23.2584539,17.6316697 21.84895,20.4301685 22.0129269,23.2189036 C22.1780668,26.0088592 23.9759984,28.6548014 26.4833338,29.5982116 C29.9105682,30.8857895 33.7925189,28.9147579 36.1637883,26.0174024 C37.6802843,24.1635343 38.7874194,21.8764053 38.9758184,19.4416015 C39.0560625,18.4152005 38.9548852,17.3216746 38.3931769,16.4771211 C37.2453383,14.7489596 34.8008026,14.8002187 32.8540125,15.3128089 C29.6803027,16.1500397 26.6868513,17.7293059 24.1539308,19.9029328 C23.2386836,20.6889045 22.3048291,21.948412 22.8549078,23.0468197" id="Stroke-31"></path><path d="M27,11 C26.6242521,7.50629535 25.8488233,4.0582681 24.6976466,0.749742144 C24.5755884,0.400371679 24.3601915,-0.0144285912 24,0.000385704135" id="Stroke-33"></path><path d="M19,20 C17.2788429,19.7884323 15.5588631,19.5783866 13.837706,19.3668189 C10.8839556,19.0045662 7.92667339,18.6423135 5,18" id="Stroke-35"></path><path d="M23,14 C21.0682542,11.8639711 19.1365084,9.726787 17.2047626,7.59075812 C16.5834976,6.9033935 15.8445321,6.1467148 15,6" id="Stroke-37"></path><path d="M35,11 C35.6666667,7.66708527 36.3333333,4.33291473 37,1" id="Stroke-39"></path><path d="M19,29 C14.5427214,30.6620142 10.1947364,32.669315 6,35" id="Stroke-41"></path><path d="M25,33 C23.5326087,36.1363636 21.4492754,38.9676425 19.3780193,41.7746533 C18.5857488,42.8505393 17.7922705,43.9252696 17,45" id="Stroke-43"></path><path d="M32,33 C31.1523182,35.5471014 30.3046363,38.0954106 29.4569545,40.6425121 C29.2033174,41.4033816 28.9463429,42.1944444 29.0097522,43 C29.3167866,42.4202899 29.623821,41.8405797 29.9308553,41.2608696" id="Stroke-45"></path><path d="M38,28 C40.3364255,30.4334848 43.0500928,32.4685269 46,34" id="Stroke-47"></path><path d="M43,21 C48.4203236,22.8360604 54.2987521,23.4235551 60,22.6978263" id="Stroke-49"></path><path d="M42,16 C45.3337408,13.3333333 48.6662592,10.6666667 52,8" id="Stroke-51"></path><path d="M36.7042871,25.3474443 C36.2929866,25.2058584 35.950822,24.7822708 36.0422221,24.3575131 C36.1324504,23.9327554 36.7816257,23.7162811 37.0323901,24.0708309 C36.0469093,25.6938032 34.4122532,26.9107398 32.5737045,27.3916638 C32.2983323,27.4630419 31.9772601,27.5098471 31.7546187,27.3331573 C31.4112824,27.0593465 31.5753339,26.5105549 31.7979752,26.1326025 C32.4635556,25.0057659 33.4185698,24.0497686 34.5446662,23.3804534 C34.7216075,23.2763117 34.937218,23.1768505 35.1235337,23.2622701 C35.3297698,23.3558806 35.3825007,23.6238407 35.3825007,23.8508462 C35.3825007,24.7179136 34.9805745,25.5756199 34.3149941,26.1326025 C34.1040707,26.3081222 33.8568216,26.4590691 33.5837931,26.4777912 C32.9791461,26.5187458 32.5209737,25.9102775 32.3780145,25.3217014 C32.1518578,24.3914469 32.4284017,23.3535404 33.0892949,22.6596525 C33.7490164,21.9645944 34.7731665,21.6357875 35.7152909,21.8136475 C36.0164426,21.8698138 36.330484,21.9915074 36.4980509,22.2501065 C36.7745949,22.6760343 36.5285176,23.2400376 36.2519737,23.6671356 C34.9266718,25.710185 32.8736844,27.2711403 30.5488402,28.0036426 C30.0344215,26.635759 29.921929,25.0607621 30.5359504,23.732663 C31.1499718,22.4057339 32.5877661,21.4193132 34.0407937,21.5995134 C34.7567614,21.6872733 35.5090547,22.156496 35.5875651,22.8726164 C35.6367805,23.323117 35.409452,23.7572357 35.1551722,24.134018 C34.4251429,25.2175597 33.2885004,26.1536648 31.9807755,26.1653661 C31.6268929,26.1688765 31.2589488,26.0974985 30.9753741,25.8857047 C30.1141037,25.2386221 30.5523555,23.8391449 31.2730104,23.038775 C32.2842708,21.9154489 33.7068317,21.1712453 35.2067312,20.9805139 C36.1207325,20.8635008 37.2339391,21.0624231 37.614773,21.9002372 C37.9709991,22.6807148 37.4975933,23.5828861 36.9538798,24.2475208 C35.8863732,25.5510472 34.4755302,26.573742 32.9018075,27.1833805 C31.7159495,27.6432421 30.1726935,27.7859981 29.3512641,26.8159592 C28.8848891,26.2648273 28.7864582,25.4878601 28.8591096,24.7705695 C29.1614331,21.8206682 31.9538242,19.6980499 34.7966024,18.8380033 C35.5113983,18.621529 36.2636916,18.4588807 37.0030952,18.5630224 C37.7436706,18.665994 38.4748716,19.0790504 38.7936003,19.7542162 C39.019757,20.2363103 39.0162416,20.7991435 38.9060927,21.319852 C38.5861923,22.8386826 37.3347136,24.1211466 35.8230962,24.4827172 C34.3255402,24.8396073 32.7424432,24.3341105 31.407767,23.5665043 C30.475017,23.0282438 29.5528131,22.2618078 29.3629821,21.2016687 C29.184869,20.2093973 29.801234,19.1211751 30.7585917,18.8005591 C31.7159495,18.4799431 32.8900895,19.0076724 33.2474875,19.9507983 C33.75136,21.275387 32.6943995,22.6619927 31.6128314,23.5782056 C29.6723364,25.2222402 27.3873332,26.457899 24.9488247,27.1810402 C23.6645358,27.5613329 21.981836,27.6596239 21.2811017,26.5187458 C20.8662858,25.8424099 20.9811218,24.9741724 21.1768118,24.205396 C22.4095417,19.3587118 26.5026269,15.3545221 31.3796439,14.2218349 C32.7459586,13.9035592 34.3009325,13.8333513 35.4340597,14.6582939 C37.0171568,15.8108734 37.0839492,18.1663479 36.5425792,20.0455789 C36.3879021,20.5826692 36.1910403,21.1197595 35.8512193,21.5632393 C35.202044,22.4092443 34.073604,22.8152799 33.0119564,22.7169889 C31.9503088,22.6175277 30.9648279,22.059375 30.2207371,21.2976195 C29.6840544,20.749998 29.2399435,19.9777113 29.4649284,19.245209 C29.7074903,18.4588807 30.6086018,18.0809283 31.4265157,17.9873178 C32.4881633,17.8667942 33.5837931,18.0575257 34.5411508,18.5314289 C35.0333053,18.7748162 35.5196009,19.1281959 35.6895114,19.6500745 C35.9824605,20.5522458 35.2266517,21.4392054 34.482561,22.0289516 C32.6100302,23.5161886 30.3918194,24.5681368 28.0540854,25.0759738 C26.8166683,25.345104 25.4234023,25.4363743 24.3781598,24.7202539 C24.3664419,23.2540792 25.4304331,21.9891672 26.6186347,21.1267803 C28.9657431,19.423069 32.0381935,18.754924 34.8821436,19.3306286 C35.2618056,19.4078573 35.6637318,19.52136 35.9074655,19.8209137 C36.4570381,20.4949094 35.8465321,21.4754795 35.2266517,22.0851179 C33.3060773,23.9725399 31.0644306,25.532325 28.6259221,26.6778837 C29.1368254,26.1747272 29.9055239,25.9465516 30.6086018,26.0893076 C30.935533,26.1560051 31.2976181,26.368969 31.2987899,26.7024564 C31.2999617,26.8732956 31.2027026,27.0289231 31.1030999,27.1681687 C30.670707,27.7707864 30.129337,28.2950053 29.5118003,28.7068915 C29.1145613,28.9725114 28.5146015,29.1644129 28.2111062,28.7946514 C28.0704906,28.6214719 28.0529136,28.3827651 28.0470547,28.1604402 C27.9767469,25.2994689 28.9575405,22.424456 30.7644507,20.2023765 C31.4300311,19.3832845 32.2221655,18.639081 33.1830387,18.2002817 C34.1439118,17.7614824 35.2934441,17.6585109 36.2543173,18.0973101 C36.7265513,18.3137844 37.1589442,18.6812057 37.3171367,19.1750011 C37.5983678,20.0514296 36.9491926,20.9536009 36.2285377,21.5257951 C35.5735035,22.0453335 34.8258973,22.4466885 34.0302475,22.7041175 C33.5041109,22.8737865 32.881887,22.967397 32.4330889,22.6432706 C31.7194649,22.1260725 31.9667139,20.999236 32.4248863,20.2468415 C33.5017673,18.478773 35.3637519,17.2091804 37.4038496,16.8522903 C38.0143556,16.7458084 38.8275824,16.8452695 38.9787441,17.4443768 C39.0607699,17.7731837 38.8908594,18.1066712 38.7174335,18.3980339 C37.9065503,19.761237 36.8941181,21.0050867 35.7223217,22.0757569 C35.1727491,22.5789134 34.5493534,23.0621777 33.8122934,23.1756804 C32.674479,23.3523702 31.5847083,22.5976355 30.8745996,21.6931239 C29.7930314,20.3147091 29.2903307,18.4974951 29.5082849,16.7598499 C29.5739055,16.2391415 29.7356134,15.6774784 30.1750371,15.3896261 C30.613289,15.1017737 31.3679259,15.3287792 31.3831593,15.8529981" id="Stroke-53"></path><path d="M54,73.9198473 C36.3591755,72.7532174 18.6478723,72.6965146 1,73.7485325 C1.98317819,86.4994238 2.96635638,99.2503151 3.94953457,112" id="Stroke-55"></path><path d="M116.83437,34.7155172 C116.880163,35.2113135 116.995736,35.8067434 117.429679,35.9644968 C117.990098,36.1685086 118.452389,35.453281 118.631199,34.8412455 C119.26794,32.6635375 119.346442,22.7144012 116.651198,22.0098487 C115.158565,21.6184306 116.677365,33.0146277 116.83437,34.7155172 Z" id="Stroke-57"></path><path d="M126.572637,38 C128.715092,37.7377119 130.857546,37.4754238 133,37.2119214 C132.609798,34.8173281 131.591614,19.4151874 127.671301,21.1334174 C123.752207,22.8516474 128.173686,37.8044982 126.572637,38 Z" id="Stroke-59"></path><path d="M116,60 C117.666667,59.6879742 119.333333,59.3759483 121,59.0639225 C119.982267,55.2738643 119.402724,51.3852716 119.276793,47.4849486 C119.251092,46.7013649 119.238242,45.8919746 118.886148,45.1764266 C116.828836,40.9922305 116.309689,49.2421467 116.257003,50.1758782 C116.208173,51.0345358 116.203033,59.9624631 116,60 Z" id="Stroke-61"></path><path d="M125.637083,60 C127.12023,59.3560828 129.12367,60.2261083 130.331,59.1656111 C131.415465,58.2144815 130.987947,56.4830324 130.403715,55.1767653 C129.139968,52.3479535 127.541479,49.1971831 125.318639,47 C124.049877,48.6675489 127.077604,59.3745155 125.637083,60 Z" id="Stroke-63"></path><path d="M118.179535,83 C119.285822,82.6539026 120.39211,82.3078052 121.499484,81.9617078 C121.835282,81.8566426 122.180861,81.7441609 122.450369,81.4932403 C123.98374,80.0557001 122.054801,72.7530452 119.785716,73.0064379 C116.14953,73.4143384 119.399929,82.6180568 118.179535,83 Z" id="Stroke-65"></path><path d="M125.255425,81 C127.170284,80.9988294 129.085142,80.9988294 131,80.9976588 C130.285358,78.2432001 129.511064,75.5039593 128.677116,72.7811073 C127.932648,70.3485679 125.91638,68.7179002 124.456077,71.3377381 C123.251088,73.5022065 124.759113,78.7348586 125.255425,81 Z" id="Stroke-67"></path><path d="M231.457405,107.627431 C231.882444,100.228947 231.370976,92.7754656 229.938392,85.5073046 C229.276562,82.1452272 228.426483,78.6014158 229.5394,75.362487 C229.861435,74.4263182 230.365799,73.5188443 231.15668,72.9306003 C232.282621,72.0948634 233.781506,72.0350825 235.178572,72.0183438 C244.054673,71.9143251 252.935511,72.2526849 261.778462,73.0334234 C264.054021,84.7445004 264.986977,97.0653425 265,109" id="Stroke-69"></path></g></g></g></g></svg> 